<svg width="868" height="501" viewBox="0 0 868 501" fill="none" xmlns="http://www.w3.org/2000/svg">
<path d="M322.434 112.135C400.965 112.135 464.622 175.445 464.622 253.537C464.622 331.629 400.965 394.939 322.434 394.939C243.903 394.939 180.245 331.629 180.245 253.537C180.245 175.445 243.903 112.135 322.434 112.135Z" fill="#E56772" stroke="#D4525E"/>
<ellipse cx="321.648" cy="251.179" rx="68.0031" ry="76.6509" fill="white"/>
<path d="M499.974 395.31V141.995C502.661 103.996 572.499 105.331 575.186 141.995V409.309C572.499 459.972 532.879 501.302 460.354 499.969C414.691 493.302 409.781 440.148 460.354 432.641C488.157 427.997 496.088 419.216 499.974 395.31Z" fill="#E56772" stroke="#D4525E"/>
<circle cx="535.091" cy="47.1698" r="46.6698" fill="#E56772" stroke="#D4525E"/>
<path d="M76.2237 356.458C70.1391 395.921 3.88085 399.934 0.5 356.458V149.768C0.50033 106.29 70.1391 98.9318 72.167 149.768C101.555 118.533 119.518 107.509 157.356 112.979C183.725 123.01 184.401 166.488 157.356 179.869C102.605 179.019 83.884 192.174 76.2237 244.752V356.458Z" fill="#E56772"/>
<path d="M0.5 147.761V149.768M0.5 149.768V356.458C3.88085 399.934 70.1391 395.921 76.2237 356.458V244.752C83.884 192.174 102.605 179.019 157.356 179.869C184.401 166.488 183.725 123.01 157.356 112.979C119.518 107.509 101.555 118.533 72.167 149.768C70.1391 98.9318 0.50033 106.29 0.5 149.768Z" stroke="#D4525E"/>
<path d="M716.819 108.506C742.433 104.76 762.864 107.555 771.013 108.951V108.95C787.867 111.855 806.51 115.065 825.83 128.714L826.75 129.372C834.293 134.846 851.197 147.384 860.412 170.823V170.824C865.089 182.688 866.259 193.433 866.435 200.861L866.458 202.302C866.577 228.191 866.687 254.08 866.797 279.969C866.908 305.858 867.019 331.748 867.137 357.638V357.64C867.166 361.111 866.699 367.772 862.692 374.458C854.853 387.503 840.054 389.543 837.105 389.93L837.101 389.931C833.539 390.428 822.36 391.935 812.236 384.684L811.754 384.331C805.064 379.349 801.769 372.61 800.154 366.878C798.538 361.144 798.612 356.445 798.64 355.595L798.703 353.748L797.717 355.312C795.187 359.33 791.145 364.987 785.083 370.612L784.49 371.156C769.212 385.001 752.082 388.734 736.981 391.456L733.989 391.99C721.908 394.131 704.751 397.151 683.113 392.462L682.08 392.233C669.89 389.462 650.597 385.044 634.5 368.466H634.501C615.115 348.447 608.209 318.752 613.641 292.633V292.632C614.816 286.938 620.72 261.632 643.216 244.188C656.867 233.63 670.601 230.603 689.903 227.444V227.443C715.245 223.273 749.706 218.984 791.869 217.613L792.273 217.6L792.344 217.202C792.981 213.668 794.152 204.663 790.01 194.659L789.593 193.688C785.106 183.599 777.655 178.496 774.537 176.396L774.535 176.396L773.639 175.812C764.985 170.327 756.557 169.341 748.647 168.692L747.017 168.562L744.375 168.364C737.695 167.912 727.542 167.732 716.361 172.021C709.864 174.495 706.7 177.07 703.093 180.071C699.513 183.051 695.479 186.466 687.203 190.704C676.366 196.265 669.428 199.807 660.435 198.405C651.963 197.082 642.107 191.438 638.265 182.076C635.557 175.472 636.524 168.675 638.963 162.351C641.405 156.021 645.298 150.223 648.373 145.641L648.374 145.642C659.572 129.007 674.847 121.512 682.685 117.793C694.685 112.096 704.85 110.28 714.826 108.799L716.819 108.506Z" fill="#E56772" stroke="#D4525E"/>
<path d="M789.106 270.162C789.934 275.709 790.793 286.159 786.856 298.311C785.732 301.804 782.121 312.518 773.182 321.412C755.157 339.317 721.623 343.837 703.42 329.718C701.319 328.075 692.972 321.617 690.634 310.316C690.19 308.115 688.592 299.837 692.795 291.941C696.761 284.427 704.249 280.435 713.928 277.265C741.069 268.312 774.899 269.369 789.106 270.162Z" fill="white"/>
</svg>
